<svg width="30" height="30" viewBox="0 0 30 30" fill="none" xmlns="http://www.w3.org/2000/svg">
<path d="M16 18V16H10C9.45 16 8.97917 15.8042 8.5875 15.4125C8.19583 15.0208 8 14.55 8 14V4C8 3.45 8.19583 2.97917 8.5875 2.5875C8.97917 2.19583 9.45 2 10 2H26C26.55 2 27.0208 2.19583 27.4125 2.5875C27.8042 2.97917 28 3.45 28 4V14C28 14.55 27.8042 15.0208 27.4125 15.4125C27.0208 15.8042 26.55 16 26 16H20V18H21C21.2833 18 21.5208 18.0958 21.7125 18.2875C21.9042 18.4792 22 18.7167 22 19C22 19.2833 21.9042 19.5208 21.7125 19.7125C21.5208 19.9042 21.2833 20 21 20H15C14.7167 20 14.4792 19.9042 14.2875 19.7125C14.0958 19.5208 14 19.2833 14 19C14 18.7167 14.0958 18.4792 14.2875 18.2875C14.4792 18.0958 14.7167 18 15 18H16ZM10 14H26V4H10V14Z" fill="#DDDDDD"/>
<path d="M10 19.35L12.125 20.975C12.225 21.0583 12.325 21.0625 12.425 20.9875C12.525 20.9125 12.5583 20.8167 12.525 20.7L11.7 18.05L13.925 16.3C14.0083 16.2167 14.0333 16.1208 14 16.0125C13.9667 15.9042 13.8917 15.85 13.775 15.85H11.1L10.25 13.175C10.2167 13.0583 10.1333 13 10 13C9.86667 13 9.78333 13.0583 9.75 13.175L8.9 15.85H6.225C6.10833 15.85 6.02917 15.9042 5.9875 16.0125C5.94583 16.1208 5.96667 16.2167 6.05 16.3L8.25 18.05L7.425 20.725C7.39167 20.8417 7.425 20.9375 7.525 21.0125C7.625 21.0875 7.725 21.0833 7.825 21L10 19.35ZM10 27.75C9.88333 27.75 9.775 27.7417 9.675 27.725C9.575 27.7083 9.475 27.6833 9.375 27.65C7.125 26.9 5.33333 25.5125 4 23.4875C2.66667 21.4625 2 19.2833 2 16.95V12.225C2 11.8083 2.12083 11.4333 2.3625 11.1C2.60417 10.7667 2.91667 10.525 3.3 10.375L9.3 8.125C9.53333 8.04167 9.76667 8 10 8C10.2333 8 10.4667 8.04167 10.7 8.125L16.7 10.375C17.0833 10.525 17.3958 10.7667 17.6375 11.1C17.8792 11.4333 18 11.8083 18 12.225V16.95C18 19.2833 17.3333 21.4625 16 23.4875C14.6667 25.5125 12.875 26.9 10.625 27.65C10.525 27.6833 10.425 27.7083 10.325 27.725C10.225 27.7417 10.1167 27.75 10 27.75ZM10 25.75C11.7333 25.2 13.1667 24.1 14.3 22.45C15.4333 20.8 16 18.9667 16 16.95V12.225L10 9.975L4 12.225V16.95C4 18.9667 4.56667 20.8 5.7 22.45C6.83333 24.1 8.26667 25.2 10 25.75Z" fill="#FFEC58"/>
</svg>
